<?xml version="1.0" encoding="UTF-8" ?>
<svg xmlns="http://www.w3.org/2000/svg" version="1.1" width="450" height="225">
<rect width="450" height="225" fill="lightblue" />
<line x1="36.0" y1="202.5" x2="418.5" y2="202.5" stroke="black" stroke-width="1" />
<line x1="36.0" y1="202.5" x2="36.0" y2="11.25" stroke="black" stroke-width="1" />
<line x1="31.0" y1="202.5" x2="36.0" y2="202.5" stroke="black" stroke-width="2"/>
<text x="6.0" y="207.5" font-size="8">10 msnm</text>
<line x1="31.0" y1="175.72335761447434" x2="36.0" y2="175.72335761447434" stroke="black" stroke-width="2"/>
<text x="6.0" y="180.72335761447434" font-size="8">12 msnm</text>
<line x1="31.0" y1="148.94671522894865" x2="36.0" y2="148.94671522894865" stroke="black" stroke-width="2"/>
<text x="6.0" y="153.94671522894865" font-size="8">14 msnm</text>
<line x1="31.0" y1="122.17007284342299" x2="36.0" y2="122.17007284342299" stroke="black" stroke-width="2"/>
<text x="6.0" y="127.17007284342299" font-size="8">16 msnm</text>
<line x1="31.0" y1="95.39343045789731" x2="36.0" y2="95.39343045789731" stroke="black" stroke-width="2"/>
<text x="6.0" y="100.39343045789731" font-size="8">18 msnm</text>
<line x1="31.0" y1="68.61678807237163" x2="36.0" y2="68.61678807237163" stroke="black" stroke-width="2"/>
<text x="6.0" y="73.61678807237163" font-size="8">20 msnm</text>
<line x1="31.0" y1="41.84014568684597" x2="36.0" y2="41.84014568684597" stroke="black" stroke-width="2"/>
<text x="6.0" y="46.84014568684597" font-size="8">22 msnm</text>
<line x1="31.0" y1="15.063503301320281" x2="36.0" y2="15.063503301320281" stroke="black" stroke-width="2"/>
<text x="6.0" y="20.06350330132028" font-size="8">24 msnm</text>
<line x1="36.0" y1="202.5" x2="36.0" y2="207.5" stroke="black" stroke-width="3" />
<text x="26.0" y="222.5" font-size="12">0 m</text>
<line x1="74.24355195926267" y1="202.5" x2="74.24355195926267" y2="207.5" stroke="black" stroke-width="3" />
<text x="64.24355195926267" y="222.5" font-size="12">430 m</text>
<line x1="112.48710391852535" y1="202.5" x2="112.48710391852535" y2="207.5" stroke="black" stroke-width="3" />
<text x="102.48710391852535" y="222.5" font-size="12">860 m</text>
<line x1="150.73065587778802" y1="202.5" x2="150.73065587778802" y2="207.5" stroke="black" stroke-width="3" />
<text x="140.73065587778802" y="222.5" font-size="12">1290 m</text>
<line x1="188.9742078370507" y1="202.5" x2="188.9742078370507" y2="207.5" stroke="black" stroke-width="3" />
<text x="178.9742078370507" y="222.5" font-size="12">1720 m</text>
<line x1="227.21775979631337" y1="202.5" x2="227.21775979631337" y2="207.5" stroke="black" stroke-width="3" />
<text x="217.21775979631337" y="222.5" font-size="12">2150 m</text>
<line x1="265.46131175557605" y1="202.5" x2="265.46131175557605" y2="207.5" stroke="black" stroke-width="3" />
<text x="255.46131175557605" y="222.5" font-size="12">2580 m</text>
<line x1="303.7048637148387" y1="202.5" x2="303.7048637148387" y2="207.5" stroke="black" stroke-width="3" />
<text x="293.7048637148387" y="222.5" font-size="12">3010 m</text>
<line x1="341.9484156741014" y1="202.5" x2="341.9484156741014" y2="207.5" stroke="black" stroke-width="3" />
<text x="331.9484156741014" y="222.5" font-size="12">3440 m</text>
<line x1="380.1919676333641" y1="202.5" x2="380.1919676333641" y2="207.5" stroke="black" stroke-width="3" />
<text x="370.1919676333641" y="222.5" font-size="12">3870 m</text>
<line x1="418.43551959262675" y1="202.5" x2="418.43551959262675" y2="207.5" stroke="black" stroke-width="3" />
<text x="408.43551959262675" y="222.5" font-size="12">4300 m</text>
<circle cx="62.436077638072646" cy="114.79416018825641" r="6" fill="red" />
<circle cx="72.21931186020961" cy="122.90600208274678" r="6" fill="red" />
<circle cx="91.34108783984095" cy="40.807564720693534" r="6" fill="red" />
<circle cx="105.21104581204331" cy="123.68735789587761" r="6" fill="red" />
<circle cx="121.8870132361404" cy="40.998977548786485" r="6" fill="red" />
<circle cx="143.2562649320754" cy="103.44899320542176" r="6" fill="red" />
<circle cx="170.44743037511117" cy="128.10612912408905" r="6" fill="red" />
<circle cx="189.196554069372" cy="118.26217719178133" r="6" fill="red" />
<circle cx="209.1134401757843" cy="124.27724464996649" r="6" fill="red" />
<circle cx="257.0824163367804" cy="131.25897835257575" r="6" fill="red" />
<circle cx="263.3463543937359" cy="135.61732273191575" r="6" fill="red" />
<circle cx="291.0337966273128" cy="137.51999060990406" r="6" fill="red" />
<circle cx="314.758139615995" cy="60.00806541345426" r="6" fill="red" />
<circle cx="383.72727272727275" cy="99.66889711255777" r="6" fill="red" />
<polyline points="62.436077638072646,114.79416018825641 72.21931186020961,122.90600208274678 91.34108783984095,40.807564720693534 105.21104581204331,123.68735789587761 121.8870132361404,40.998977548786485 143.2562649320754,103.44899320542176 170.44743037511117,128.10612912408905 189.196554069372,118.26217719178133 209.1134401757843,124.27724464996649 257.0824163367804,131.25897835257575 263.3463543937359,135.61732273191575 291.0337966273128,137.51999060990406 314.758139615995,60.00806541345426 383.72727272727275,99.66889711255777" style="fill:none;stroke:red;stroke-width:4" />
</svg>
